# Blender v3.1.2 OBJ File: ''
# www.blender.org
mtllib cutting_board.mtl
o choppingBoard_Plane.014
v -1.723045 0.000000 1.288534
v -1.723045 0.044690 1.333225
v -1.767736 0.044690 1.288534
v 1.723045 0.000000 1.288534
v 1.767736 0.044690 1.288534
v 1.723045 0.044690 1.333225
v -1.723045 0.000000 -1.288534
v -1.767736 0.044690 -1.288534
v -1.723045 0.044690 -1.333225
v 1.723045 0.000000 -1.288534
v 1.723045 0.044690 -1.333225
v 1.767736 0.044690 -1.288534
v -1.723045 0.154869 -1.288534
v -1.723045 0.110178 -1.333225
v -1.767736 0.110178 -1.288534
v -1.723045 0.154869 1.288534
v -1.767736 0.110178 1.288534
v -1.723045 0.110178 1.333225
v 1.723045 0.154869 1.288534
v 1.723045 0.110178 1.333225
v 1.767736 0.110178 1.288534
v 1.723045 0.154869 -1.288534
v 1.767736 0.110178 -1.288534
v 1.723045 0.110178 -1.333225
v -1.517804 0.000000 1.288534
v -1.428423 0.000000 1.288534
v -1.428423 0.044690 1.333225
v -1.517804 0.044690 1.333225
v 0.839177 0.000000 1.288534
v 0.928558 0.000000 1.288534
v 0.928558 0.044690 1.333225
v 0.839177 0.044690 1.333225
v 1.133800 0.000000 1.288534
v 1.223181 0.000000 1.288534
v 1.223181 0.044690 1.333225
v 1.133800 0.044690 1.333225
v 1.517804 0.000000 1.288534
v 1.517804 0.044690 1.333225
v 1.428423 0.044690 1.333225
v 1.428423 0.000000 1.288534
v 1.517804 0.000000 -1.288534
v 1.428423 0.000000 -1.288534
v 1.428423 0.044690 -1.333225
v 1.517804 0.044690 -1.333225
v 1.223181 0.000000 -1.288534
v 1.133800 0.000000 -1.288534
v 1.133800 0.044690 -1.333225
v 1.223181 0.044690 -1.333225
v 0.928558 0.000000 -1.288534
v 0.839177 0.000000 -1.288534
v 0.839177 0.044690 -1.333225
v 0.928558 0.044690 -1.333225
v -1.517804 0.000000 -1.288534
v -1.517804 0.044690 -1.333225
v -1.428423 0.044690 -1.333225
v -1.428423 0.000000 -1.288534
v -1.517804 0.154869 1.288534
v -1.517804 0.110178 1.333225
v -1.428423 0.110178 1.333225
v -1.428423 0.154869 1.288534
v 0.839177 0.154869 1.288534
v 0.839177 0.110178 1.333225
v 0.928558 0.110178 1.333225
v 0.928558 0.154869 1.288534
v 1.133800 0.154869 1.288534
v 1.133800 0.110178 1.333225
v 1.223181 0.110178 1.333225
v 1.223181 0.154869 1.288534
v 1.517804 0.154869 1.288534
v 1.428423 0.154869 1.288534
v 1.428423 0.110178 1.333225
v 1.517804 0.110178 1.333225
v 1.517804 0.154869 -1.288534
v 1.517804 0.110178 -1.333225
v 1.428423 0.110178 -1.333225
v 1.428423 0.154869 -1.288534
v 1.223181 0.154869 -1.288534
v 1.223181 0.110178 -1.333225
v 1.133800 0.110178 -1.333225
v 1.133800 0.154869 -1.288534
v 0.928558 0.154869 -1.288534
v 0.928558 0.110178 -1.333225
v 0.839177 0.110178 -1.333225
v 0.839177 0.154869 -1.288534
v -1.517804 0.154869 -1.288534
v -1.428423 0.154869 -1.288534
v -1.428423 0.110178 -1.333225
v -1.517804 0.110178 -1.333225
v -1.767736 0.044690 -0.996994
v -1.723045 0.000000 -0.996994
v -1.723045 0.000000 -0.907613
v -1.767736 0.044690 -0.907613
v -1.767736 0.044690 0.996994
v -1.767736 0.044690 0.907613
v -1.723045 0.000000 0.907613
v -1.723045 0.000000 0.996994
v 1.723045 0.000000 0.996994
v 1.723045 0.000000 0.907613
v 1.767736 0.044690 0.907613
v 1.767736 0.044690 0.996994
v 1.723045 0.000000 -0.996994
v 1.767736 0.044690 -0.996994
v 1.767736 0.044690 -0.907613
v 1.723045 0.000000 -0.907613
v -1.767736 0.110178 -0.996994
v -1.767736 0.110178 -0.907613
v -1.723045 0.154869 -0.907613
v -1.723045 0.154869 -0.996994
v -1.767736 0.110178 0.996994
v -1.723045 0.154869 0.996994
v -1.723045 0.154869 0.907613
v -1.767736 0.110178 0.907613
v 1.723045 0.154869 0.996994
v 1.767736 0.110178 0.996994
v 1.767736 0.110178 0.907613
v 1.723045 0.154869 0.907613
v 1.723045 0.154869 -0.996994
v 1.723045 0.154869 -0.907613
v 1.767736 0.110178 -0.907613
v 1.767736 0.110178 -0.996994
v -1.517804 0.154869 0.996994
v -1.428423 0.154869 0.996994
v -1.428423 0.154869 0.907613
v -1.517804 0.154869 0.907613
v -1.517804 0.154869 -0.996994
v -1.517804 0.154869 -0.907613
v -1.428423 0.154869 -0.907613
v -1.428423 0.154869 -0.996994
v 0.839177 0.154869 0.996994
v 0.928558 0.154869 0.996994
v 0.928558 0.154869 0.907613
v 0.839177 0.154869 0.907613
v 0.839177 0.154869 -0.996994
v 0.839177 0.154869 -0.907613
v 0.928558 0.154869 -0.907613
v 0.928558 0.154869 -0.996994
v 1.133800 0.154869 0.996994
v 1.223181 0.154869 0.996994
v 1.223181 0.110178 0.952303
v 1.178491 0.110178 0.907613
v 1.133800 0.154869 0.907613
v 1.133800 0.154869 -0.996994
v 1.133800 0.154869 -0.907613
v 1.178491 0.110178 -0.907613
v 1.223181 0.110178 -0.952303
v 1.223181 0.154869 -0.996994
v 1.517804 0.154869 0.996994
v 1.517804 0.154869 0.907613
v 1.473113 0.110178 0.907613
v 1.428423 0.110178 0.952303
v 1.428423 0.154869 0.996994
v 1.517804 0.154869 -0.996994
v 1.428423 0.154869 -0.996994
v 1.428423 0.110178 -0.952303
v 1.473113 0.110178 -0.907613
v 1.517804 0.154869 -0.907613
v -1.517804 0.000000 -0.996994
v -1.428423 0.000000 -0.996994
v -1.428423 0.000000 -0.907613
v -1.517804 0.000000 -0.907613
v -1.517804 0.000000 0.996994
v -1.517804 0.000000 0.907613
v -1.428423 0.000000 0.907613
v -1.428423 0.000000 0.996994
v 0.839177 0.000000 -0.996994
v 0.928558 0.000000 -0.996994
v 0.928558 0.000000 -0.907613
v 0.839177 0.000000 -0.907613
v 0.839177 0.000000 0.996994
v 0.839177 0.000000 0.907613
v 0.928558 0.000000 0.907613
v 0.928558 0.000000 0.996994
v 1.133800 0.000000 -0.996994
v 1.223181 0.000000 -0.996994
v 1.223181 0.044690 -0.952303
v 1.178491 0.044690 -0.907613
v 1.133800 0.000000 -0.907613
v 1.133800 0.000000 0.996994
v 1.133800 0.000000 0.907613
v 1.178491 0.044690 0.907613
v 1.223181 0.044690 0.952303
v 1.223181 0.000000 0.996994
v 1.517804 0.000000 -0.996994
v 1.517804 0.000000 -0.907613
v 1.473113 0.044690 -0.907613
v 1.428423 0.044690 -0.952303
v 1.428423 0.000000 -0.996994
v 1.517804 0.000000 0.996994
v 1.428423 0.000000 0.996994
v 1.428423 0.044690 0.952303
v 1.473113 0.044690 0.907613
v 1.517804 0.000000 0.907613
vt 0.012641 0.873903
vt 0.070693 0.873903
vt 0.070693 0.983240
vt 0.012641 0.983240
vt 0.095974 0.016760
vt 0.095974 0.126097
vt 0.737359 0.126097
vt 0.737359 0.016760
vt 0.000000 0.983240
vt 0.000000 0.873903
vt 0.000000 0.873903
vt 0.000000 0.983240
vt 1.000000 0.016760
vt 1.000000 0.126097
vt 1.000000 0.126097
vt 1.000000 0.016760
vt 0.987359 1.000000
vt 0.929307 1.000000
vt 0.929307 1.000000
vt 0.987359 1.000000
vt 0.012641 0.000000
vt 0.070693 0.000000
vt 0.070693 0.000000
vt 0.012641 0.000000
vt 0.929307 0.016760
vt 0.929307 0.126097
vt 0.987359 0.126097
vt 0.987359 0.016760
vt 0.762641 0.016760
vt 0.762641 0.126097
vt 0.820693 0.126097
vt 0.820693 0.016760
vt 0.845974 0.016760
vt 0.845974 0.126097
vt 0.904026 0.126097
vt 0.904026 0.016760
vt 0.845974 0.873903
vt 0.845974 0.983240
vt 0.904026 0.983240
vt 0.904026 0.873903
vt 0.929307 0.873903
vt 0.929307 0.983240
vt 0.987359 0.983240
vt 0.987359 0.873903
vt 0.762640 0.873903
vt 0.762641 0.983240
vt 0.820693 0.983240
vt 0.820693 0.873903
vt 0.737359 0.983240
vt 0.737359 0.873903
vt 0.095974 0.873903
vt 0.095974 0.983240
vt 0.095974 0.016760
vt 0.737359 0.016760
vt 0.737359 0.126097
vt 0.095974 0.126097
vt 0.012641 0.016760
vt 0.070693 0.016760
vt 0.070693 0.126097
vt 0.012641 0.126097
vt 0.000000 0.840383
vt 0.000000 0.159617
vt 0.000000 0.159617
vt 0.000000 0.840383
vt 0.737359 0.873903
vt 0.737359 0.983240
vt 0.095974 0.983240
vt 0.095974 0.873903
vt 0.762641 0.873903
vt 0.820693 0.873903
vt 0.820693 0.983240
vt 0.762641 0.983240
vt 0.070693 1.000000
vt 0.012641 1.000000
vt 0.012641 1.000000
vt 0.070693 1.000000
vt 0.737359 1.000000
vt 0.095974 1.000000
vt 0.095974 1.000000
vt 0.737359 1.000000
vt 0.820693 1.000000
vt 0.762641 1.000000
vt 0.762641 1.000000
vt 0.820693 1.000000
vt 0.904026 1.000000
vt 0.845974 1.000000
vt 0.845974 1.000000
vt 0.904026 1.000000
vt 0.845974 0.000000
vt 0.904026 0.000000
vt 0.904026 0.000000
vt 0.845974 0.000000
vt 0.762641 0.000000
vt 0.820693 0.000000
vt 0.820693 0.000000
vt 0.762641 0.000000
vt 0.095974 0.000000
vt 0.737359 0.000000
vt 0.737359 0.000000
vt 0.095974 0.000000
vt 0.762640 0.840382
vt 0.820693 0.840383
vt 0.820693 0.159617
vt 0.762640 0.159617
vt 0.000000 0.126097
vt 0.000000 0.016760
vt 0.000000 0.016760
vt 0.000000 0.126097
vt 0.929307 0.840383
vt 0.987359 0.840382
vt 0.987359 0.159617
vt 0.929307 0.159617
vt 0.845974 0.873903
vt 0.904026 0.873903
vt 0.904026 0.983240
vt 0.845974 0.983240
vt 0.845974 0.016760
vt 0.904026 0.016760
vt 0.904026 0.126097
vt 0.845974 0.126097
vt 0.833333 0.840383
vt 0.833333 0.840383
vt 0.833333 0.159617
vt 0.833333 0.159617
vt 0.820693 0.159617
vt 0.820693 0.840383
vt 0.762641 0.840383
vt 0.762640 0.159617
vt 0.762641 0.016760
vt 0.820693 0.016760
vt 0.820693 0.126097
vt 0.762641 0.126097
vt 0.929307 0.016760
vt 0.987359 0.016760
vt 0.987359 0.126097
vt 0.929307 0.126097
vt 0.987359 0.159617
vt 0.987359 0.840383
vt 0.929307 0.840383
vt 0.929307 0.159617
vt 1.000000 0.873903
vt 1.000000 0.983240
vt 1.000000 0.983240
vt 1.000000 0.873903
vt 0.012641 0.840382
vt 0.070693 0.840383
vt 0.070693 0.159617
vt 0.012641 0.159617
vt 0.012641 0.873903
vt 0.012641 0.983240
vt 0.070693 0.983240
vt 0.070693 0.873903
vt 0.070693 0.159617
vt 0.070693 0.840383
vt 0.012641 0.840383
vt 0.012641 0.159617
vt 0.929307 0.873903
vt 0.987359 0.873903
vt 0.987359 0.983240
vt 0.929307 0.983240
vt 0.737359 0.840383
vt 0.095974 0.840383
vt 0.095974 0.159617
vt 0.737359 0.159617
vt 0.929307 0.000000
vt 0.987359 0.000000
vt 0.987359 0.000000
vt 0.929307 0.000000
vt 1.000000 0.159617
vt 1.000000 0.840383
vt 1.000000 0.840383
vt 1.000000 0.159617
vt 0.845974 0.142857
vt 0.845974 0.142857
vt 0.904026 0.142857
vt 0.904026 0.142857
vt 0.916667 0.159617
vt 0.916667 0.840383
vt 0.916667 0.840383
vt 0.916667 0.159617
vt 0.095974 0.840383
vt 0.737359 0.840383
vt 0.737359 0.159617
vt 0.095974 0.159617
vt 0.845974 0.857143
vt 0.904026 0.857143
vt 0.904026 0.857143
vt 0.845974 0.857143
vt 0.012641 0.016760
vt 0.070693 0.016760
vt 0.012641 0.126097
vt 0.070693 0.126097
vn 0.0000 1.0000 0.0000
vn 0.0000 -1.0000 0.0000
vn -1.0000 0.0000 0.0000
vn 1.0000 0.0000 0.0000
vn -0.0000 0.0000 -1.0000
vn 0.0000 0.0000 1.0000
vn -0.5773 -0.5773 0.5774
vn 0.5774 -0.5773 0.5774
vn -0.5774 -0.5773 -0.5774
vn 0.5773 -0.5773 -0.5774
vn -0.5773 0.5773 -0.5774
vn -0.5774 0.5773 0.5774
vn 0.5773 0.5773 0.5774
vn 0.5774 0.5773 -0.5774
vn 0.0000 -0.7071 0.7071
vn -0.0000 -0.7071 -0.7071
vn 0.0000 0.7071 0.7071
vn 0.0000 0.7071 -0.7071
vn -0.7071 -0.7071 0.0000
vn 0.7071 -0.7071 -0.0000
vn -0.7071 0.7071 0.0000
vn 0.7071 0.7071 0.0000
vn 0.3665 0.8552 -0.3665
vn 0.3665 0.8552 0.3665
vn -0.3665 0.8552 -0.3665
vn -0.3665 0.8552 0.3665
vn 0.3665 -0.8552 0.3665
vn 0.3665 -0.8552 -0.3665
vn -0.3665 -0.8552 0.3665
vn -0.3665 -0.8552 -0.3665
vn -0.7071 0.0000 -0.7071
vn 0.7071 0.0000 -0.7071
vn 0.7071 0.0000 0.7071
vn -0.7071 0.0000 0.7071
usemtl Wok_Handle.002
s off
f 108/1/1 125/2/1 85/3/1 13/4/1
f 26/5/2 164/6/2 169/7/2 29/8/2
f 8/9/3 89/10/3 105/11/3 15/12/3
f 5/13/4 100/14/4 114/15/4 21/16/4
f 11/17/5 44/18/5 74/19/5 24/20/5
f 2/21/6 28/22/6 58/23/6 18/24/6
f 37/25/2 188/26/2 97/27/2 4/28/2
f 30/29/2 172/30/2 178/31/2 33/32/2
f 34/33/2 182/34/2 189/35/2 40/36/2
f 174/37/2 45/38/2 42/39/2 187/40/2
f 183/41/2 41/42/2 10/43/2 101/44/2
f 166/45/2 49/46/2 46/47/2 173/48/2
f 50/49/2 165/50/2 158/51/2 56/52/2
f 60/53/1 61/54/1 129/55/1 122/56/1
f 16/57/1 57/58/1 121/59/1 110/60/1
f 92/61/3 94/62/3 112/63/3 106/64/3
f 133/65/1 84/66/1 86/67/1 128/68/1
f 136/69/1 142/70/1 80/71/1 81/72/1
f 54/73/5 9/74/5 14/75/5 88/76/5
f 51/77/5 55/78/5 87/79/5 83/80/5
f 47/81/5 52/82/5 82/83/5 79/84/5
f 43/85/5 48/86/5 78/87/5 75/88/5
f 35/89/6 39/90/6 71/91/6 67/92/6
f 31/93/6 36/94/6 66/95/6 63/96/6
f 27/97/6 32/98/6 62/99/6 59/100/6
f 167/101/2 177/102/2 179/103/2 171/104/2
f 93/105/3 3/106/3 17/107/3 109/108/3
f 184/109/2 104/110/2 98/111/2 192/112/2
f 146/113/1 153/114/1 76/115/1 77/116/1
f 68/117/1 70/118/1 151/119/1 138/120/1
f 176/121/4 144/122/4 140/123/4 180/124/4
f 141/125/1 143/126/1 135/127/1 131/128/1
f 64/129/1 65/130/1 137/131/1 130/132/1
f 69/133/1 19/134/1 113/135/1 147/136/1
f 116/137/1 118/138/1 156/139/1 148/140/1
f 102/141/4 12/142/4 23/143/4 120/144/4
f 91/145/2 160/146/2 162/147/2 95/148/2
f 90/149/2 7/150/2 53/151/2 157/152/2
f 124/153/1 126/154/1 107/155/1 111/156/1
f 152/157/1 117/158/1 22/159/1 73/160/1
f 134/161/1 127/162/1 123/163/1 132/164/1
f 38/165/6 6/166/6 20/167/6 72/168/6
f 99/169/4 103/170/4 119/171/4 115/172/4
f 181/173/5 139/174/5 150/175/5 190/176/5
f 149/177/3 155/178/3 185/179/3 191/180/3
f 159/181/2 168/182/2 170/183/2 163/184/2
f 175/185/6 186/186/6 154/187/6 145/188/6
f 1/189/7 2/21/7 3/106/7
f 4/28/8 5/13/8 6/166/8
f 7/150/9 8/9/9 9/74/9
f 10/43/10 11/17/10 12/142/10
f 13/4/11 14/75/11 15/12/11
f 16/57/12 17/107/12 18/24/12
f 19/134/13 20/167/13 21/16/13
f 22/159/14 23/143/14 24/20/14
f 25/190/15 26/5/15 27/97/15 28/22/15
f 29/8/15 30/29/15 31/93/15 32/98/15
f 33/32/15 34/33/15 35/89/15 36/94/15
f 37/25/15 38/165/15 39/90/15 40/36/15
f 41/42/16 42/39/16 43/85/16 44/18/16
f 45/38/16 46/47/16 47/81/16 48/86/16
f 49/46/16 50/49/16 51/77/16 52/82/16
f 53/151/16 54/73/16 55/78/16 56/52/16
f 57/58/17 58/23/17 59/100/17 60/53/17
f 61/54/17 62/99/17 63/96/17 64/129/17
f 65/130/17 66/95/17 67/92/17 68/117/17
f 69/133/17 70/118/17 71/91/17 72/168/17
f 73/160/18 74/19/18 75/88/18 76/115/18
f 77/116/18 78/87/18 79/84/18 80/71/18
f 81/72/18 82/83/18 83/80/18 84/66/18
f 85/3/18 86/67/18 87/79/18 88/76/18
f 89/10/19 90/149/19 91/145/19 92/61/19
f 93/105/19 94/62/19 95/148/19 96/191/19
f 97/27/20 98/111/20 99/169/20 100/14/20
f 101/44/20 102/141/20 103/170/20 104/110/20
f 105/11/21 106/64/21 107/155/21 108/1/21
f 109/108/21 110/60/21 111/156/21 112/63/21
f 113/135/22 114/15/22 115/172/22 116/137/22
f 117/158/22 118/138/22 119/171/22 120/144/22
f 121/59/1 122/56/1 123/163/1 124/153/1
f 125/2/1 126/154/1 127/162/1 128/68/1
f 129/55/1 130/132/1 131/128/1 132/164/1
f 133/65/1 134/161/1 135/127/1 136/69/1
f 137/131/23 138/120/23 139/174/23 140/123/23 141/125/23
f 142/70/24 143/126/24 144/122/24 145/188/24 146/113/24
f 147/136/25 148/140/25 149/177/25 150/175/25 151/119/25
f 152/157/26 153/114/26 154/187/26 155/178/26 156/139/26
f 157/152/2 158/51/2 159/181/2 160/146/2
f 161/192/2 162/147/2 163/184/2 164/6/2
f 165/50/2 166/45/2 167/101/2 168/182/2
f 169/7/2 170/183/2 171/104/2 172/30/2
f 173/48/27 174/37/27 175/185/27 176/121/27 177/102/27
f 178/31/28 179/103/28 180/124/28 181/173/28 182/34/28
f 183/41/29 184/109/29 185/179/29 186/186/29 187/40/29
f 188/26/30 189/35/30 190/176/30 191/180/30 192/112/30
f 96/191/19 1/189/19 3/106/19 93/105/19
f 37/25/15 4/28/15 6/166/15 38/165/15
f 101/44/20 10/43/20 12/142/20 102/141/20
f 53/151/16 7/150/16 9/74/16 54/73/16
f 109/108/21 17/107/21 16/57/21 110/60/21
f 72/168/17 20/167/17 19/134/17 69/133/17
f 120/144/22 23/143/22 22/159/22 117/158/22
f 88/76/18 14/75/18 13/4/18 85/3/18
f 8/9/31 15/12/31 14/75/31 9/74/31
f 23/143/32 12/142/32 11/17/32 24/20/32
f 5/13/33 21/16/33 20/167/33 6/166/33
f 17/107/34 3/106/34 2/21/34 18/24/34
f 1/189/15 25/190/15 28/22/15 2/21/15
f 26/5/15 29/8/15 32/98/15 27/97/15
f 30/29/15 33/32/15 36/94/15 31/93/15
f 34/33/15 40/36/15 39/90/15 35/89/15
f 10/43/16 41/42/16 44/18/16 11/17/16
f 42/39/16 45/38/16 48/86/16 43/85/16
f 46/47/16 49/46/16 52/82/16 47/81/16
f 50/49/16 56/52/16 55/78/16 51/77/16
f 18/24/17 58/23/17 57/58/17 16/57/17
f 59/100/17 62/99/17 61/54/17 60/53/17
f 63/96/17 66/95/17 65/130/17 64/129/17
f 67/92/17 71/91/17 70/118/17 68/117/17
f 24/20/18 74/19/18 73/160/18 22/159/18
f 75/88/18 78/87/18 77/116/18 76/115/18
f 79/84/18 82/83/18 81/72/18 80/71/18
f 83/80/18 87/79/18 86/67/18 84/66/18
f 27/97/6 59/100/6 58/23/6 28/22/6
f 31/93/6 63/96/6 62/99/6 32/98/6
f 35/89/6 67/92/6 66/95/6 36/94/6
f 38/165/6 72/168/6 71/91/6 39/90/6
f 43/85/5 75/88/5 74/19/5 44/18/5
f 47/81/5 79/84/5 78/87/5 48/86/5
f 51/77/5 83/80/5 82/83/5 52/82/5
f 54/73/5 88/76/5 87/79/5 55/78/5
f 128/68/1 86/67/1 85/3/1 125/2/1
f 136/69/1 81/72/1 84/66/1 133/65/1
f 146/113/1 77/116/1 80/71/1 142/70/1
f 152/157/1 73/160/1 76/115/1 153/114/1
f 164/6/2 26/5/2 25/190/2 161/192/2
f 172/30/2 30/29/2 29/8/2 169/7/2
f 182/34/2 34/33/2 33/32/2 178/31/2
f 188/26/2 37/25/2 40/36/2 189/35/2
f 7/150/19 90/149/19 89/10/19 8/9/19
f 91/145/19 95/148/19 94/62/19 92/61/19
f 4/28/20 97/27/20 100/14/20 5/13/20
f 98/111/20 104/110/20 103/170/20 99/169/20
f 15/12/21 105/11/21 108/1/21 13/4/21
f 106/64/21 112/63/21 111/156/21 107/155/21
f 21/16/22 114/15/22 113/135/22 19/134/22
f 115/172/22 119/171/22 118/138/22 116/137/22
f 60/53/1 122/56/1 121/59/1 57/58/1
f 123/163/1 127/162/1 126/154/1 124/153/1
f 64/129/1 130/132/1 129/55/1 61/54/1
f 131/128/1 135/127/1 134/161/1 132/164/1
f 68/117/1 138/120/1 137/131/1 65/130/1
f 140/123/22 144/122/22 143/126/22 141/125/22
f 69/133/1 147/136/1 151/119/1 70/118/1
f 148/140/21 156/139/21 155/178/21 149/177/21
f 56/52/2 158/51/2 157/152/2 53/151/2
f 159/181/2 163/184/2 162/147/2 160/146/2
f 49/46/2 166/45/2 165/50/2 50/49/2
f 167/101/2 171/104/2 170/183/2 168/182/2
f 45/38/2 174/37/2 173/48/2 46/47/2
f 176/121/20 180/124/20 179/103/20 177/102/20
f 41/42/2 183/41/2 187/40/2 42/39/2
f 184/109/19 192/112/19 191/180/19 185/179/19
f 181/173/16 190/176/16 189/35/16 182/34/16
f 174/37/15 187/40/15 186/186/15 175/185/15
f 171/104/2 179/103/2 178/31/2 172/30/2
f 166/45/2 173/48/2 177/102/2 167/101/2
f 163/184/2 170/183/2 169/7/2 164/6/2
f 158/51/2 165/50/2 168/182/2 159/181/2
f 95/148/2 162/147/2 161/192/2 96/191/2
f 90/149/2 157/152/2 160/146/2 91/145/2
f 150/175/18 139/174/18 138/120/18 151/119/18
f 153/114/17 146/113/17 145/188/17 154/187/17
f 141/125/1 131/128/1 130/132/1 137/131/1
f 142/70/1 136/69/1 135/127/1 143/126/1
f 132/164/1 123/163/1 122/56/1 129/55/1
f 133/65/1 128/68/1 127/162/1 134/161/1
f 124/153/1 111/156/1 110/60/1 121/59/1
f 125/2/1 108/1/1 107/155/1 126/154/1
f 92/61/3 106/64/3 105/11/3 89/10/3
f 93/105/3 109/108/3 112/63/3 94/62/3
f 99/169/4 115/172/4 114/15/4 100/14/4
f 102/141/4 120/144/4 119/171/4 103/170/4
f 116/137/1 148/140/1 147/136/1 113/135/1
f 117/158/1 152/157/1 156/139/1 118/138/1
f 192/112/2 98/111/2 97/27/2 188/26/2
f 183/41/2 101/44/2 104/110/2 184/109/2
f 139/174/32 181/173/32 180/124/32 140/123/32
f 144/122/33 176/121/33 175/185/33 145/188/33
f 185/179/34 155/178/34 154/187/34 186/186/34
f 149/177/31 191/180/31 190/176/31 150/175/31
f 1/189/2 96/191/2 161/192/2 25/190/2
