# Blender v3.1.2 OBJ File: ''
# www.blender.org
mtllib fridge.mtl
o fridge_Plane.001
v 1.324392 -1.330037 -1.466840
v -1.336904 -1.413769 1.336904
v 1.324392 1.339311 -1.466840
v -1.267490 -1.267490 1.096256
v -1.336904 -1.336904 1.413769
v 1.344074 -1.330037 -1.462925
v 1.344074 1.339311 -1.462925
v -1.267490 1.267490 1.096256
v -1.413769 -1.336904 1.336904
v 1.360758 -1.330037 -1.451777
v -1.336904 1.336904 1.413769
v 1.360758 1.339311 -1.451777
v -1.336904 1.413769 1.336904
v 1.371907 -1.330037 -1.435092
v 1.371907 1.339311 -1.435092
v 1.267490 -1.267490 1.096256
v 1.375822 -1.330037 -1.415411
v -1.413769 1.336904 1.336904
v 1.375822 1.339311 -1.415411
v 1.267490 1.267490 1.096256
v -1.336904 -1.413769 -1.336904
v 1.371907 -1.330037 -1.395730
v 1.371907 1.339311 -1.395730
v -1.413769 -1.336904 -1.336904
v -1.336904 -1.336904 -1.413769
v -1.336904 1.413769 -1.336904
v -1.336904 1.336904 -1.413769
v -1.413769 1.336904 -1.336904
v 1.336904 -1.413769 1.336904
v 1.413769 -1.336904 1.336904
v 1.336904 -1.336904 1.413769
v 1.336904 1.413769 1.336904
v 1.336904 1.336904 1.413769
v 1.413769 1.336904 1.336904
v 1.336904 -1.413769 -1.336904
v 1.336904 -1.336904 -1.413769
v 1.413769 -1.336904 -1.336904
v 1.272963 -1.330037 -1.415411
v 1.336904 1.413769 -1.336904
v 1.272963 1.339311 -1.415411
v 1.413769 1.336904 -1.336904
v 1.276878 -1.330037 -1.435092
v 1.276878 1.339311 -1.435092
v -1.267490 -1.267490 -1.413769
v 1.288027 -1.330037 -1.451777
v 1.267490 1.267490 -1.413769
v 1.288027 1.339311 -1.451777
v -1.267490 1.267490 -1.413769
v 1.304711 -1.330037 -1.462925
v 1.267490 -1.267490 -1.413769
v 1.304711 1.339311 -1.462925
v 1.273290 -1.273290 -1.413769
v 1.330037 -1.330037 -1.413769
v 1.336904 -1.330037 -1.413769
v 1.273290 1.336904 -1.413769
v 1.273290 -1.330037 -1.413769
v 1.336904 1.339311 -1.411362
v 1.365112 1.336904 -1.385561
v 1.364148 1.339311 -1.384118
v 1.273769 1.339311 -1.411362
v 1.365112 -1.330037 -1.385561
vt 0.381796 0.756796
vt 0.618204 0.756796
vt 0.618204 0.993204
vt 0.381796 0.993204
vt 0.381796 0.506796
vt 0.618204 0.506796
vt 0.618204 0.743204
vt 0.381796 0.743204
vt 0.631796 0.506796
vt 0.868204 0.506796
vt 0.868204 0.743204
vt 0.631796 0.743204
vt 0.381796 0.006796
vt 0.618204 0.006796
vt 0.618204 0.243204
vt 0.381796 0.243204
vt 0.387933 0.487067
vt 0.612067 0.487067
vt 0.612067 0.262934
vt 0.618204 0.256796
vt 0.618204 0.487579
vt 0.387421 0.487579
vt 0.382403 0.492597
vt 0.382403 0.493204
vt 0.381796 0.493204
vt 0.381796 0.256796
vt 0.387934 0.262934
vt 0.382403 0.487579
vt 0.131796 0.743204
vt 0.131796 0.750000
vt 0.125000 0.743204
vt 0.625000 0.993204
vt 0.618204 1.000000
vt 0.131796 0.506796
vt 0.125000 0.506796
vt 0.131796 0.500000
vt 0.625000 0.256796
vt 0.625000 0.256796
vt 0.618204 0.250000
vt 0.368204 0.743204
vt 0.375000 0.743204
vt 0.368204 0.750000
vt 0.625000 0.756796
vt 0.625000 0.756796
vt 0.618204 0.750000
vt 0.368204 0.506796
vt 0.368204 0.500000
vt 0.375000 0.506796
vt 0.618417 0.500213
vt 0.625000 0.506796
vt 0.625000 0.506796
vt 0.620698 0.502494
vt 0.620826 0.502622
vt 0.381796 0.000000
vt 0.618204 0.000000
vt 0.625000 0.006796
vt 0.625000 0.243204
vt 0.625000 0.493204
vt 0.618417 0.493204
vt 0.618417 0.487622
vt 0.382403 0.498192
vt 0.618204 0.498192
vt 0.625000 0.247539
vt 0.625000 0.000000
vt 0.375000 0.000000
vt 0.375000 0.247539
vt 0.375000 0.502461
vt 0.375000 0.750000
vt 0.625000 0.750000
vt 0.625000 0.502461
vt 0.375000 1.000000
vt 0.625000 1.000000
vt 0.125000 0.502461
vt 0.125000 0.750000
vt 0.875000 0.750000
vt 0.875000 0.502461
vt 1.000000 0.500000
vt 1.000000 1.000000
vt 0.937500 1.000000
vt 0.937500 0.500000
vt 0.875000 1.000000
vt 0.875000 0.500000
vt 0.812500 1.000000
vt 0.812500 0.500000
vt 0.750000 1.000000
vt 0.750000 0.500000
vt 0.687500 1.000000
vt 0.687500 0.500000
vt 0.644002 1.000000
vt 0.649407 0.999549
vt 0.649407 0.500000
vt 0.262857 1.000000
vt 0.250000 1.000000
vt 0.250000 0.500000
vt 0.255214 0.500000
vt 0.255214 0.510629
vt 0.255214 0.999549
vt 0.187500 1.000000
vt 0.187500 0.500000
vt 0.125000 1.000000
vt 0.125000 0.500000
vt 0.435524 0.103967
vt 0.471731 0.158156
vt 0.490000 0.250000
vt 0.471731 0.341844
vt 0.419706 0.419706
vt 0.341844 0.471731
vt 0.250000 0.490000
vt 0.158156 0.471731
vt 0.080294 0.419706
vt 0.028269 0.341844
vt 0.010000 0.250000
vt 0.013758 0.231106
vt 0.308385 0.231106
vt 0.062500 1.000000
vt 0.062500 0.500000
vt 0.000000 1.000000
vt 0.000000 0.500000
vt 0.510000 0.250000
vt 0.528269 0.341844
vt 0.580294 0.419706
vt 0.658156 0.471731
vt 0.750000 0.490000
vt 0.841844 0.471731
vt 0.919706 0.419706
vt 0.971731 0.341844
vt 0.990000 0.250000
vt 0.971731 0.158156
vt 0.940022 0.110701
vt 0.808385 0.242338
vt 0.776342 0.242338
vt 0.511524 0.242338
vn 0.0000 0.0000 1.0000
vn 1.0000 0.0000 0.0000
vn 0.0000 1.0000 0.0000
vn -1.0000 0.0000 0.0000
vn -0.0000 0.0000 -1.0000
vn -0.5774 -0.5774 0.5774
vn -0.5774 0.5774 0.5774
vn -0.5774 -0.5774 -0.5774
vn -0.5774 0.5774 -0.5774
vn 0.5774 -0.5774 0.5774
vn 0.5774 0.5774 0.5774
vn 0.5774 -0.5774 -0.5774
vn 0.5773 0.5774 -0.5774
vn -0.7071 -0.7071 0.0000
vn -0.7071 0.0000 0.7071
vn -0.7071 0.7071 0.0000
vn -0.7071 0.0000 -0.7071
vn 0.0000 -0.7071 -0.7071
vn 0.0000 0.7071 -0.7071
vn 0.7071 0.0000 -0.7071
vn 0.7071 -0.7071 0.0000
vn 0.7071 0.7071 0.0000
vn 0.7071 0.0000 0.7071
vn 0.0000 -0.7071 0.7071
vn 0.0000 0.7071 0.7071
vn 0.0000 -1.0000 0.0000
vn 0.1951 0.0000 -0.9808
vn 0.5556 0.0000 -0.8315
vn 0.8315 0.0000 -0.5556
vn 0.9808 0.0000 -0.1951
vn 0.9808 0.0000 0.1951
vn 0.8315 -0.0000 0.5556
vn -0.9808 -0.0000 0.1951
vn -0.9808 0.0000 -0.1951
vn -0.8315 0.0000 -0.5556
vn -0.5556 0.0000 -0.8315
vn -0.1951 0.0000 -0.9808
usemtl None
s off
f 31/1/1 33/2/1 11/3/1 5/4/1
f 37/5/2 41/6/2 34/7/2 30/8/2
f 39/9/3 26/10/3 13/11/3 32/12/3
f 9/13/4 18/14/4 28/15/4 24/16/4
f 50/17/5 46/18/5 48/19/5 27/20/5 55/21/5 52/22/5
f 53/23/5 54/24/5 36/25/5
f 53/23/5 36/25/5 25/26/5 27/20/5 48/19/5 44/27/5 50/17/5 52/22/5 56/28/5
f 2/29/6 5/30/6 9/31/6
f 11/3/7 13/32/7 18/33/7
f 21/34/8 24/35/8 25/36/8
f 26/37/9 27/38/9 28/39/9
f 29/40/10 30/41/10 31/42/10
f 32/43/11 33/44/11 34/45/11
f 35/46/12 36/47/12 37/48/12
f 57/49/13 39/50/13 41/51/13 58/52/13 59/53/13
f 21/34/14 2/29/14 9/31/14 24/35/14
f 5/54/15 11/55/15 18/14/15 9/13/15
f 13/56/16 26/57/16 28/15/16 18/14/16
f 27/20/17 25/26/17 24/16/17 28/15/17
f 35/46/18 21/34/18 25/36/18 36/47/18
f 27/20/19 26/37/19 39/58/19 57/59/19 60/60/19 55/21/19
f 41/6/20 37/5/20 36/25/20 54/24/20 61/61/20 58/62/20
f 29/40/21 35/46/21 37/5/21 30/8/21
f 39/9/22 32/12/22 34/7/22 41/6/22
f 33/2/23 31/1/23 30/8/23 34/7/23
f 2/29/24 29/40/24 31/42/24 5/30/24
f 32/43/25 13/32/25 11/3/25 33/2/25
f 21/34/26 35/46/26 29/40/26 2/29/26
f 48/63/2 8/64/2 4/65/2 44/66/2
f 50/67/4 16/68/4 20/69/4 46/70/4
f 16/68/5 4/71/5 8/72/5 20/69/5
f 44/73/3 4/74/3 16/68/3 50/67/3
f 20/69/26 8/75/26 48/76/26 46/70/26
f 1/77/27 3/78/27 7/79/27 6/80/27
f 6/80/28 7/79/28 12/81/28 10/82/28
f 10/82/29 12/81/29 15/83/29 14/84/29
f 14/84/30 15/83/30 19/85/30 17/86/30
f 17/86/31 19/85/31 23/87/31 22/88/31
f 22/88/32 23/87/32 59/89/32 58/90/32 61/91/32
f 60/92/33 40/93/33 38/94/33 56/95/33 52/96/33 55/97/33
f 38/94/34 40/93/34 43/98/34 42/99/34
f 42/99/35 43/98/35 47/100/35 45/101/35
f 59/102/3 23/103/3 19/104/3 15/105/3 12/106/3 7/107/3 3/108/3 51/109/3 47/110/3 43/111/3 40/112/3 60/113/3 57/114/3
f 45/101/36 47/100/36 51/115/36 49/116/36
f 49/116/37 51/115/37 3/117/37 1/118/37
f 38/119/26 42/120/26 45/121/26 49/122/26 1/123/26 6/124/26 10/125/26 14/126/26 17/127/26 22/128/26 61/129/26 54/130/26 53/131/26 56/132/26
