# Blender v3.1.2 OBJ File: ''
# www.blender.org
mtllib ricecooker_lid.mtl
o riceCooker_lid.001_Cylinder.020
v 1.196748 -0.383785 -2.889208
v -0.000001 -0.383785 -3.127256
v 2.211303 -0.383784 -2.211304
v 2.889208 -0.383784 -1.196750
v 3.127256 -0.383783 -0.000000
v 2.889209 -0.383783 1.196749
v 2.211304 -0.383783 2.211304
v 1.196750 -0.383782 2.889208
v 0.000000 -0.383782 3.127256
v -1.196749 -0.383782 2.889209
v -2.211303 -0.383783 2.211305
v -2.889208 -0.383783 1.196750
v -3.127256 -0.383783 0.000001
v -2.889208 -0.383784 -1.196749
v -2.211305 -0.383784 -2.211303
v -1.196750 -0.383785 -2.889208
v 0.492010 0.383783 -1.187819
v -0.000000 0.383783 -1.285686
v 0.909117 0.383783 -0.909117
v 1.187819 0.383783 -0.492011
v 1.285686 0.383783 -0.000000
v 1.187819 0.383784 0.492010
v 0.909117 0.383784 0.909117
v 0.492011 0.383784 1.187819
v 0.000000 0.383784 1.285686
v -0.492011 0.383784 1.187819
v -0.909117 0.383784 0.909117
v -1.187819 0.383784 0.492011
v -1.285686 0.383783 0.000000
v -1.187819 0.383783 -0.492011
v -0.909118 0.383783 -0.909117
v -0.492011 0.383783 -1.187819
v 1.176822 -0.508717 -2.841100
v -0.000001 -0.508717 -3.075184
v 2.174483 -0.508717 -2.174484
v 2.841100 -0.508716 -1.176823
v 3.075184 -0.508716 -0.000000
v 2.841100 -0.508715 1.176822
v 2.174484 -0.508715 2.174483
v 1.176823 -0.508715 2.841100
v 0.000000 -0.508715 3.075184
v -1.176822 -0.508715 2.841101
v -2.174483 -0.508715 2.174484
v -2.841100 -0.508715 1.176823
v -3.075184 -0.508716 0.000001
v -2.841100 -0.508716 -1.176822
v -2.174485 -0.508717 -2.174483
v -1.176823 -0.508717 -2.841100
v 0.480641 0.251734 -1.160370
v -0.000000 0.251734 -1.255975
v 0.888108 0.251734 -0.888109
v 1.160370 0.251734 -0.480641
v 1.255975 0.251735 -0.000000
v 1.160370 0.251735 0.480641
v 0.888109 0.251735 0.888108
v 0.480641 0.251735 1.160370
v 0.000000 0.251735 1.255975
v -0.480641 0.251735 1.160370
v -0.888108 0.251735 0.888109
v -1.160370 0.251735 0.480641
v -1.255975 0.251735 0.000000
v -1.160370 0.251734 -0.480641
v -0.888109 0.251734 -0.888108
v -0.480641 0.251734 -1.160370
vt 0.875000 1.000000
vt 0.937500 1.000000
vt 0.937500 1.000000
vt 0.875000 1.000000
vt 0.341844 0.471731
vt 0.250000 0.490000
vt 0.158156 0.471731
vt 0.080294 0.419706
vt 0.028269 0.341844
vt 0.010000 0.250000
vt 0.028269 0.158156
vt 0.080294 0.080294
vt 0.158156 0.028269
vt 0.250000 0.010000
vt 0.341844 0.028269
vt 0.419706 0.080294
vt 0.471731 0.158156
vt 0.490000 0.250000
vt 0.471731 0.341844
vt 0.419706 0.419706
vt 0.375000 1.000000
vt 0.437500 1.000000
vt 0.437500 1.000000
vt 0.375000 1.000000
vt 0.812500 1.000000
vt 0.812500 1.000000
vt 0.312500 1.000000
vt 0.312500 1.000000
vt 0.750000 1.000000
vt 0.750000 1.000000
vt 0.250000 1.000000
vt 0.250000 1.000000
vt 0.687500 1.000000
vt 0.687500 1.000000
vt 0.187500 1.000000
vt 0.187500 1.000000
vt 0.625000 1.000000
vt 0.625000 1.000000
vt 0.125000 1.000000
vt 0.125000 1.000000
vt 0.562500 1.000000
vt 0.562500 1.000000
vt 0.062500 1.000000
vt 0.062500 1.000000
vt 0.500000 1.000000
vt 0.500000 1.000000
vt 1.000000 1.000000
vt 1.000000 1.000000
vt 0.000000 1.000000
vt 0.000000 1.000000
vt 0.875000 1.000000
vt 0.875000 1.000000
vt 0.937500 1.000000
vt 0.937500 1.000000
vt 0.341844 0.471731
vt 0.419706 0.419706
vt 0.471731 0.341844
vt 0.490000 0.250000
vt 0.471731 0.158156
vt 0.419706 0.080294
vt 0.341844 0.028269
vt 0.250000 0.010000
vt 0.158156 0.028269
vt 0.080294 0.080294
vt 0.028269 0.158156
vt 0.010000 0.250000
vt 0.028269 0.341844
vt 0.080294 0.419706
vt 0.158156 0.471731
vt 0.250000 0.490000
vt 0.375000 1.000000
vt 0.375000 1.000000
vt 0.437500 1.000000
vt 0.437500 1.000000
vt 0.812500 1.000000
vt 0.812500 1.000000
vt 0.312500 1.000000
vt 0.312500 1.000000
vt 0.750000 1.000000
vt 0.750000 1.000000
vt 0.250000 1.000000
vt 0.250000 1.000000
vt 0.687500 1.000000
vt 0.687500 1.000000
vt 0.187500 1.000000
vt 0.187500 1.000000
vt 0.625000 1.000000
vt 0.625000 1.000000
vt 0.125000 1.000000
vt 0.125000 1.000000
vt 0.562500 1.000000
vt 0.562500 1.000000
vt 0.062500 1.000000
vt 0.062500 1.000000
vt 0.500000 1.000000
vt 0.500000 1.000000
vt 1.000000 1.000000
vt 1.000000 1.000000
vt 0.000000 1.000000
vt 0.000000 1.000000
vn 0.2173 0.9203 -0.3252
vn -0.0000 1.0000 -0.0000
vn -0.2173 0.9203 0.3252
vn 0.3252 0.9203 -0.2173
vn -0.3252 0.9203 0.2173
vn 0.3836 0.9203 -0.0763
vn -0.3836 0.9203 0.0763
vn 0.3836 0.9203 0.0763
vn -0.3836 0.9203 -0.0763
vn 0.3252 0.9203 0.2173
vn -0.3252 0.9203 -0.2173
vn 0.2173 0.9203 0.3252
vn -0.2173 0.9203 -0.3252
vn 0.0763 0.9203 0.3836
vn 0.0763 0.9203 -0.3836
vn -0.0763 0.9203 -0.3836
vn -0.0763 0.9203 0.3836
vn -0.2178 -0.9199 0.3260
vn -0.0000 -1.0000 0.0000
vn 0.2178 -0.9199 -0.3260
vn -0.3260 -0.9199 0.2178
vn 0.3260 -0.9199 -0.2178
vn -0.3845 -0.9199 0.0765
vn 0.3845 -0.9199 -0.0765
vn -0.3845 -0.9199 -0.0765
vn 0.3845 -0.9199 0.0765
vn -0.3260 -0.9199 -0.2178
vn 0.3260 -0.9199 0.2178
vn -0.2178 -0.9199 -0.3260
vn 0.2178 -0.9199 0.3260
vn -0.0765 -0.9199 -0.3845
vn -0.0765 -0.9199 0.3845
vn 0.0765 -0.9199 0.3845
vn 0.0765 -0.9199 -0.3845
vn 0.1806 -0.3784 -0.9079
vn 0.5143 -0.3784 -0.7696
vn 0.7696 -0.3784 -0.5143
vn 0.9079 -0.3784 -0.1806
vn 0.9079 -0.3784 0.1806
vn 0.7696 -0.3784 0.5143
vn 0.5143 -0.3784 0.7696
vn 0.1806 -0.3784 0.9079
vn -0.1806 -0.3784 0.9079
vn -0.5143 -0.3784 0.7696
vn -0.7696 -0.3784 0.5143
vn -0.9079 -0.3784 0.1806
vn -0.9079 -0.3784 -0.1806
vn -0.7696 -0.3784 -0.5143
vn -0.5143 -0.3784 -0.7696
vn -0.1806 -0.3784 -0.9079
usemtl Metal.003
s off
f 3/1/1 1/2/1 17/3/1 19/4/1
f 17/5/2 18/6/2 32/7/2 31/8/2 30/9/2 29/10/2 28/11/2 27/12/2 26/13/2 25/14/2 24/15/2 23/16/2 22/17/2 21/18/2 20/19/2 19/20/2
f 11/21/3 10/22/3 26/23/3 27/24/3
f 4/25/4 3/1/4 19/4/4 20/26/4
f 12/27/5 11/21/5 27/24/5 28/28/5
f 5/29/6 4/25/6 20/26/6 21/30/6
f 13/31/7 12/27/7 28/28/7 29/32/7
f 6/33/8 5/29/8 21/30/8 22/34/8
f 14/35/9 13/31/9 29/32/9 30/36/9
f 7/37/10 6/33/10 22/34/10 23/38/10
f 15/39/11 14/35/11 30/36/11 31/40/11
f 8/41/12 7/37/12 23/38/12 24/42/12
f 16/43/13 15/39/13 31/40/13 32/44/13
f 9/45/14 8/41/14 24/42/14 25/46/14
f 1/2/15 2/47/15 18/48/15 17/3/15
f 2/49/16 16/43/16 32/44/16 18/50/16
f 10/22/17 9/45/17 25/46/17 26/23/17
f 35/51/18 51/52/18 49/53/18 33/54/18
f 49/55/19 51/56/19 52/57/19 53/58/19 54/59/19 55/60/19 56/61/19 57/62/19 58/63/19 59/64/19 60/65/19 61/66/19 62/67/19 63/68/19 64/69/19 50/70/19
f 43/71/20 59/72/20 58/73/20 42/74/20
f 36/75/21 52/76/21 51/52/21 35/51/21
f 44/77/22 60/78/22 59/72/22 43/71/22
f 37/79/23 53/80/23 52/76/23 36/75/23
f 45/81/24 61/82/24 60/78/24 44/77/24
f 38/83/25 54/84/25 53/80/25 37/79/25
f 46/85/26 62/86/26 61/82/26 45/81/26
f 39/87/27 55/88/27 54/84/27 38/83/27
f 47/89/28 63/90/28 62/86/28 46/85/28
f 40/91/29 56/92/29 55/88/29 39/87/29
f 48/93/30 64/94/30 63/90/30 47/89/30
f 41/95/31 57/96/31 56/92/31 40/91/31
f 33/54/32 49/53/32 50/97/32 34/98/32
f 34/99/33 50/100/33 64/94/33 48/93/33
f 42/74/34 58/73/34 57/96/34 41/95/34
f 2/47/35 1/2/35 33/54/35 34/98/35
f 1/2/36 3/1/36 35/51/36 33/54/36
f 3/1/37 4/25/37 36/75/37 35/51/37
f 4/25/38 5/29/38 37/79/38 36/75/38
f 5/29/39 6/33/39 38/83/39 37/79/39
f 6/33/40 7/37/40 39/87/40 38/83/40
f 7/37/41 8/41/41 40/91/41 39/87/41
f 8/41/42 9/45/42 41/95/42 40/91/42
f 9/45/43 10/22/43 42/74/43 41/95/43
f 10/22/44 11/21/44 43/71/44 42/74/44
f 11/21/45 12/27/45 44/77/45 43/71/45
f 12/27/46 13/31/46 45/81/46 44/77/46
f 13/31/47 14/35/47 46/85/47 45/81/47
f 14/35/48 15/39/48 47/89/48 46/85/48
f 15/39/49 16/43/49 48/93/49 47/89/49
f 16/43/50 2/49/50 34/99/50 48/93/50
