# Blender v3.1.2 OBJ File: 'HawkerManAssets.blend'
# www.blender.org
mtllib shaker.mtl
o Cylinder_Cylinder.006
v 0.000000 -2.584195 -1.000000
v 0.000000 -2.436481 -1.082474
v 0.707107 -2.584195 -0.707107
v 0.765425 -2.436481 -0.765425
v 1.000000 -2.584195 -0.000000
v 1.082474 -2.436481 -0.000000
v 0.707107 -2.584195 0.707107
v 0.765425 -2.436481 0.765425
v -0.000000 -2.584195 1.000000
v -0.000000 -2.436481 1.082474
v -0.707107 -2.584195 0.707107
v -0.765424 -2.436481 0.765425
v -1.000000 -2.584195 -0.000000
v -1.082474 -2.436481 -0.000000
v -0.707107 -2.584195 -0.707107
v -0.765425 -2.436481 -0.765425
v 0.000000 -0.421883 -0.562244
v 0.397567 -0.421883 -0.397566
v 0.562244 -0.421883 -0.000000
v 0.397567 -0.421883 0.397566
v -0.000000 -0.421883 0.562244
v -0.397566 -0.421883 0.397566
v -0.562244 -0.421883 -0.000000
v -0.397566 -0.421883 -0.397566
v 0.000000 -0.363195 -0.562244
v 0.397567 -0.363195 -0.397566
v 0.562244 -0.363195 -0.000000
v 0.397567 -0.363195 0.397566
v -0.000000 -0.363195 0.562244
v -0.397566 -0.363195 0.397566
v -0.562244 -0.363195 -0.000000
v -0.397566 -0.363195 -0.397566
v 0.000000 -0.307802 -0.633040
v 0.447627 -0.307802 -0.447627
v 0.633040 -0.307802 -0.000000
v 0.447627 -0.307802 0.447627
v -0.000000 -0.307802 0.633040
v -0.447627 -0.307802 0.447627
v -0.633040 -0.307802 -0.000000
v -0.447627 -0.307802 -0.447627
v 0.000000 -0.276006 -0.661240
v 0.467567 -0.276006 -0.467567
v 0.661240 -0.276006 -0.000000
v 0.467567 -0.276006 0.467567
v -0.000000 -0.276006 0.661240
v -0.467567 -0.276006 0.467567
v -0.661240 -0.276006 -0.000000
v -0.467568 -0.276006 -0.467567
v -0.000000 0.321244 -0.661240
v 0.467567 0.321244 -0.467567
v 0.661240 0.321244 -0.000000
v 0.467567 0.321244 0.467567
v -0.000000 0.321244 0.661240
v -0.467567 0.321244 0.467567
v -0.661240 0.321244 -0.000000
v -0.467568 0.321244 -0.467567
v -0.000000 0.383517 -0.573631
v 0.405618 0.383517 -0.405618
v 0.573631 0.383517 -0.000000
v 0.405618 0.383517 0.405618
v -0.000000 0.383517 0.573631
v -0.405618 0.383517 0.405618
v -0.573631 0.383517 -0.000000
v -0.405618 0.383517 -0.405618
vt 1.000000 0.500000
vt 1.000000 1.000000
vt 0.875000 1.000000
vt 0.875000 0.500000
vt 0.750000 1.000000
vt 0.750000 0.500000
vt 0.625000 1.000000
vt 0.625000 0.500000
vt 0.500000 1.000000
vt 0.500000 0.500000
vt 0.375000 1.000000
vt 0.375000 0.500000
vt 0.250000 1.000000
vt 0.250000 0.500000
vt 0.875000 1.000000
vt 0.750000 1.000000
vt 0.125000 1.000000
vt 0.125000 0.500000
vt 0.000000 1.000000
vt 0.000000 0.500000
vt 0.750000 0.490000
vt 0.919706 0.419706
vt 0.990000 0.250000
vt 0.919706 0.080294
vt 0.750000 0.010000
vt 0.580294 0.080294
vt 0.510000 0.250000
vt 0.580294 0.419706
vt 0.875000 1.000000
vt 0.750000 1.000000
vt 0.500000 1.000000
vt 0.375000 1.000000
vt 0.125000 1.000000
vt 0.000000 1.000000
vt 1.000000 1.000000
vt 0.625000 1.000000
vt 0.250000 1.000000
vt 0.000000 1.000000
vt 0.125000 1.000000
vt 0.125000 1.000000
vt 0.000000 1.000000
vt 0.250000 1.000000
vt 0.500000 1.000000
vt 0.375000 1.000000
vt 0.625000 1.000000
vt 1.000000 1.000000
vt 0.125000 1.000000
vt 0.000000 1.000000
vt 0.375000 1.000000
vt 0.250000 1.000000
vt 0.625000 1.000000
vt 0.500000 1.000000
vt 0.875000 1.000000
vt 0.750000 1.000000
vt 1.000000 1.000000
vt 0.625000 1.000000
vt 0.750000 1.000000
vt 0.750000 1.000000
vt 0.625000 1.000000
vt 0.375000 1.000000
vt 0.250000 1.000000
vt 0.500000 1.000000
vt 0.875000 1.000000
vt 1.000000 1.000000
vt 0.125000 1.000000
vt 0.250000 1.000000
vt 0.250000 1.000000
vt 0.125000 1.000000
vt 1.000000 1.000000
vt 0.875000 1.000000
vt 0.000000 1.000000
vt 0.375000 1.000000
vt 0.500000 1.000000
vt 0.419706 0.419706
vt 0.250000 0.490000
vt 0.080294 0.419706
vt 0.010000 0.250000
vt 0.080294 0.080294
vt 0.250000 0.010000
vt 0.419706 0.080294
vt 0.490000 0.250000
vt 0.500000 1.000000
vt 0.375000 1.000000
vt 0.750000 1.000000
vt 0.625000 1.000000
vt 1.000000 1.000000
vt 0.875000 1.000000
vt 0.000000 1.000000
vn 0.3401 -0.4584 -0.8211
vn 0.8211 -0.4584 -0.3401
vn 0.8211 -0.4584 0.3401
vn 0.3401 -0.4584 0.8211
vn -0.3401 -0.4584 0.8211
vn -0.8211 -0.4584 0.3401
vn 0.8987 0.2321 -0.3722
vn -0.8211 -0.4584 -0.3401
vn -0.3401 -0.4584 -0.8211
vn 0.0000 -1.0000 -0.0000
vn 0.9239 0.0000 -0.3827
vn -0.3722 0.2321 0.8987
vn -0.3722 0.2321 -0.8987
vn 0.3722 0.2321 -0.8987
vn 0.8987 0.2321 0.3722
vn -0.8987 0.2321 0.3722
vn 0.3722 0.2321 0.8987
vn -0.8987 0.2321 -0.3722
vn -0.2473 -0.7631 -0.5971
vn -0.9239 0.0000 -0.3827
vn -0.3827 0.0000 0.9239
vn 0.9239 0.0000 0.3827
vn 0.3827 0.0000 -0.9239
vn -0.3827 0.0000 -0.9239
vn -0.9239 0.0000 0.3827
vn 0.3827 0.0000 0.9239
vn -0.2960 -0.6338 -0.7146
vn -0.5971 -0.7631 0.2473
vn 0.2473 -0.7631 0.5971
vn 0.5971 -0.7631 -0.2473
vn -0.5971 -0.7631 -0.2473
vn -0.2473 -0.7631 0.5971
vn 0.5971 -0.7631 0.2473
vn 0.2473 -0.7631 -0.5971
vn -0.7146 -0.6338 0.2960
vn 0.2960 -0.6338 0.7146
vn 0.7146 -0.6338 -0.2960
vn -0.7146 -0.6338 -0.2960
vn -0.2960 -0.6338 0.7146
vn 0.7146 -0.6338 0.2960
vn 0.2960 -0.6338 -0.7146
vn -0.5634 0.7926 -0.2334
vn 0.0000 1.0000 0.0000
vn -0.2334 0.7926 0.5634
vn 0.5634 0.7926 0.2334
vn 0.2334 0.7926 -0.5634
vn -0.2334 0.7926 -0.5634
vn -0.5634 0.7926 0.2334
vn 0.2334 0.7926 0.5634
vn 0.5634 0.7926 -0.2334
usemtl Metal
s off
f 1/1/1 2/2/1 4/3/1 3/4/1
f 3/4/2 4/3/2 6/5/2 5/6/2
f 5/6/3 6/5/3 8/7/3 7/8/3
f 7/8/4 8/7/4 10/9/4 9/10/4
f 9/10/5 10/9/5 12/11/5 11/12/5
f 11/12/6 12/11/6 14/13/6 13/14/6
f 6/5/7 4/3/7 18/15/7 19/16/7
f 13/14/8 14/13/8 16/17/8 15/18/8
f 15/18/9 16/17/9 2/19/9 1/20/9
f 1/21/10 3/22/10 5/23/10 7/24/10 9/25/10 11/26/10 13/27/10 15/28/10
f 19/16/11 18/15/11 26/29/11 27/30/11
f 12/11/12 10/9/12 21/31/12 22/32/12
f 2/19/13 16/17/13 24/33/13 17/34/13
f 4/3/14 2/2/14 17/35/14 18/15/14
f 8/7/15 6/5/15 19/16/15 20/36/15
f 14/13/16 12/11/16 22/32/16 23/37/16
f 10/9/17 8/7/17 20/36/17 21/31/17
f 16/17/18 14/13/18 23/37/18 24/33/18
f 25/38/19 32/39/19 40/40/19 33/41/19
f 24/33/20 23/37/20 31/42/20 32/39/20
f 22/32/21 21/31/21 29/43/21 30/44/21
f 20/36/22 19/16/22 27/30/22 28/45/22
f 18/15/23 17/35/23 25/46/23 26/29/23
f 17/34/24 24/33/24 32/39/24 25/38/24
f 23/37/25 22/32/25 30/44/25 31/42/25
f 21/31/26 20/36/26 28/45/26 29/43/26
f 33/41/27 40/40/27 48/47/27 41/48/27
f 31/42/28 30/44/28 38/49/28 39/50/28
f 29/43/29 28/45/29 36/51/29 37/52/29
f 27/30/30 26/29/30 34/53/30 35/54/30
f 32/39/31 31/42/31 39/50/31 40/40/31
f 30/44/32 29/43/32 37/52/32 38/49/32
f 28/45/33 27/30/33 35/54/33 36/51/33
f 26/29/34 25/46/34 33/55/34 34/53/34
f 44/56/22 43/57/22 51/58/22 52/59/22
f 39/50/35 38/49/35 46/60/35 47/61/35
f 37/52/36 36/51/36 44/56/36 45/62/36
f 35/54/37 34/53/37 42/63/37 43/57/37
f 40/40/38 39/50/38 47/61/38 48/47/38
f 38/49/39 37/52/39 45/62/39 46/60/39
f 36/51/40 35/54/40 43/57/40 44/56/40
f 34/53/41 33/55/41 41/64/41 42/63/41
f 56/65/42 55/66/42 63/67/42 64/68/42
f 42/63/23 41/64/23 49/69/23 50/70/23
f 41/48/24 48/47/24 56/65/24 49/71/24
f 47/61/25 46/60/25 54/72/25 55/66/25
f 45/62/26 44/56/26 52/59/26 53/73/26
f 43/57/11 42/63/11 50/70/11 51/58/11
f 48/47/20 47/61/20 55/66/20 56/65/20
f 46/60/21 45/62/21 53/73/21 54/72/21
f 58/74/43 57/75/43 64/76/43 63/77/43 62/78/43 61/79/43 60/80/43 59/81/43
f 54/72/44 53/73/44 61/82/44 62/83/44
f 52/59/45 51/58/45 59/84/45 60/85/45
f 50/70/46 49/69/46 57/86/46 58/87/46
f 49/71/47 56/65/47 64/68/47 57/88/47
f 55/66/48 54/72/48 62/83/48 63/67/48
f 53/73/49 52/59/49 60/85/49 61/82/49
f 51/58/50 50/70/50 58/87/50 59/84/50
